<mxfile host="app.diagrams.net" modified="2020-10-02T02:47:59.983Z" agent="5.0 (Windows NT 10.0; Win64; x64) AppleWebKit/537.36 (KHTML, like Gecko) Chrome/85.0.4183.121 Safari/537.36" etag="ShX9lGD7lOOiwhnQyOhL" version="13.7.6" type="github">
  <diagram id="wpLm4l1lKHVmqFgt216w" name="Page-1">
    <mxGraphModel dx="1021" dy="529" grid="1" gridSize="10" guides="1" tooltips="1" connect="1" arrows="1" fold="1" page="1" pageScale="1" pageWidth="1654" pageHeight="1169" math="0" shadow="0">
      <root>
        <mxCell id="0" />
        <mxCell id="1" parent="0" />
        <mxCell id="wNgRPNMnROrw59EM7K4U-3" value="" style="edgeStyle=orthogonalEdgeStyle;rounded=0;orthogonalLoop=1;jettySize=auto;html=1;" edge="1" parent="1" source="5baozU0yPbvPERcWP2Hg-1" target="wNgRPNMnROrw59EM7K4U-1">
          <mxGeometry relative="1" as="geometry" />
        </mxCell>
        <mxCell id="wNgRPNMnROrw59EM7K4U-36" value="" style="edgeStyle=none;rounded=0;orthogonalLoop=1;jettySize=auto;html=1;" edge="1" parent="1" source="5baozU0yPbvPERcWP2Hg-1" target="wNgRPNMnROrw59EM7K4U-35">
          <mxGeometry relative="1" as="geometry" />
        </mxCell>
        <mxCell id="5baozU0yPbvPERcWP2Hg-1" value="¿Qué es un flujo de escombros (FE)?" style="rounded=0;whiteSpace=wrap;html=1;" parent="1" vertex="1">
          <mxGeometry x="90" y="335" width="140" height="40" as="geometry" />
        </mxCell>
        <mxCell id="5baozU0yPbvPERcWP2Hg-2" value="&lt;div style=&quot;font-size: 18px&quot;&gt;&lt;font style=&quot;font-size: 18px&quot;&gt;&lt;b&gt;Assessing strategies to mitigate debris-flow risk in Abancay province,&amp;nbsp;&lt;/b&gt;&lt;/font&gt;&lt;b&gt;south central Peruvian Andes&lt;/b&gt;&lt;/div&gt;" style="text;html=1;strokeColor=none;fillColor=none;align=center;verticalAlign=middle;whiteSpace=wrap;rounded=0;" parent="1" vertex="1">
          <mxGeometry x="260" y="30" width="660" height="50" as="geometry" />
        </mxCell>
        <mxCell id="fSxVsInOuan3p5r798gy-10" value="" style="edgeStyle=orthogonalEdgeStyle;rounded=0;orthogonalLoop=1;jettySize=auto;html=1;" parent="1" target="Ouj066mRsgByMyt-P1Th-2" edge="1">
          <mxGeometry relative="1" as="geometry">
            <mxPoint x="625.0000000000002" y="290" as="sourcePoint" />
          </mxGeometry>
        </mxCell>
        <mxCell id="fSxVsInOuan3p5r798gy-11" value="" style="edgeStyle=orthogonalEdgeStyle;rounded=0;orthogonalLoop=1;jettySize=auto;html=1;" parent="1" target="Ouj066mRsgByMyt-P1Th-3" edge="1">
          <mxGeometry relative="1" as="geometry">
            <mxPoint x="625.0000000000002" y="410" as="sourcePoint" />
          </mxGeometry>
        </mxCell>
        <mxCell id="wNgRPNMnROrw59EM7K4U-4" value="" style="edgeStyle=orthogonalEdgeStyle;rounded=0;orthogonalLoop=1;jettySize=auto;html=1;" edge="1" parent="1" source="wNgRPNMnROrw59EM7K4U-1" target="wNgRPNMnROrw59EM7K4U-2">
          <mxGeometry relative="1" as="geometry" />
        </mxCell>
        <mxCell id="wNgRPNMnROrw59EM7K4U-22" value="" style="rounded=0;orthogonalLoop=1;jettySize=auto;html=1;exitX=0.5;exitY=1;exitDx=0;exitDy=0;" edge="1" parent="1" source="wNgRPNMnROrw59EM7K4U-1" target="wNgRPNMnROrw59EM7K4U-21">
          <mxGeometry relative="1" as="geometry" />
        </mxCell>
        <mxCell id="wNgRPNMnROrw59EM7K4U-26" style="edgeStyle=none;rounded=0;orthogonalLoop=1;jettySize=auto;html=1;exitX=0.5;exitY=1;exitDx=0;exitDy=0;" edge="1" parent="1" source="wNgRPNMnROrw59EM7K4U-1" target="wNgRPNMnROrw59EM7K4U-28">
          <mxGeometry relative="1" as="geometry">
            <mxPoint x="410" y="490" as="targetPoint" />
          </mxGeometry>
        </mxCell>
        <mxCell id="wNgRPNMnROrw59EM7K4U-29" style="edgeStyle=none;rounded=0;orthogonalLoop=1;jettySize=auto;html=1;exitX=0.5;exitY=1;exitDx=0;exitDy=0;" edge="1" parent="1" source="wNgRPNMnROrw59EM7K4U-1" target="wNgRPNMnROrw59EM7K4U-30">
          <mxGeometry relative="1" as="geometry">
            <mxPoint x="200" y="590" as="targetPoint" />
          </mxGeometry>
        </mxCell>
        <mxCell id="wNgRPNMnROrw59EM7K4U-31" style="edgeStyle=none;rounded=0;orthogonalLoop=1;jettySize=auto;html=1;exitX=0.5;exitY=1;exitDx=0;exitDy=0;" edge="1" parent="1" source="wNgRPNMnROrw59EM7K4U-1" target="wNgRPNMnROrw59EM7K4U-32">
          <mxGeometry relative="1" as="geometry">
            <mxPoint x="350.17647058823536" y="570" as="targetPoint" />
          </mxGeometry>
        </mxCell>
        <mxCell id="wNgRPNMnROrw59EM7K4U-33" style="edgeStyle=none;rounded=0;orthogonalLoop=1;jettySize=auto;html=1;exitX=0.5;exitY=1;exitDx=0;exitDy=0;" edge="1" parent="1" source="wNgRPNMnROrw59EM7K4U-1" target="wNgRPNMnROrw59EM7K4U-34">
          <mxGeometry relative="1" as="geometry">
            <mxPoint x="560" y="540" as="targetPoint" />
          </mxGeometry>
        </mxCell>
        <mxCell id="wNgRPNMnROrw59EM7K4U-1" value="¿Qué factores determinan la ocurrencia de FE?" style="rounded=0;whiteSpace=wrap;html=1;" vertex="1" parent="1">
          <mxGeometry x="290" y="332.5" width="140" height="45" as="geometry" />
        </mxCell>
        <mxCell id="wNgRPNMnROrw59EM7K4U-38" value="" style="edgeStyle=none;rounded=0;orthogonalLoop=1;jettySize=auto;html=1;exitX=0.25;exitY=0;exitDx=0;exitDy=0;" edge="1" parent="1" source="wNgRPNMnROrw59EM7K4U-42" target="wNgRPNMnROrw59EM7K4U-37">
          <mxGeometry relative="1" as="geometry">
            <mxPoint x="538" y="270" as="sourcePoint" />
          </mxGeometry>
        </mxCell>
        <mxCell id="wNgRPNMnROrw59EM7K4U-41" value="" style="edgeStyle=none;rounded=0;orthogonalLoop=1;jettySize=auto;html=1;exitX=0.75;exitY=0;exitDx=0;exitDy=0;" edge="1" parent="1" source="wNgRPNMnROrw59EM7K4U-42" target="wNgRPNMnROrw59EM7K4U-40">
          <mxGeometry relative="1" as="geometry">
            <mxPoint x="560" y="270" as="sourcePoint" />
          </mxGeometry>
        </mxCell>
        <mxCell id="wNgRPNMnROrw59EM7K4U-43" style="edgeStyle=none;rounded=0;orthogonalLoop=1;jettySize=auto;html=1;entryX=0.5;entryY=1;entryDx=0;entryDy=0;" edge="1" parent="1" source="wNgRPNMnROrw59EM7K4U-2" target="wNgRPNMnROrw59EM7K4U-42">
          <mxGeometry relative="1" as="geometry" />
        </mxCell>
        <mxCell id="wNgRPNMnROrw59EM7K4U-2" value="¿Cuáles son los principales?" style="rounded=0;whiteSpace=wrap;html=1;" vertex="1" parent="1">
          <mxGeometry x="510" y="332.5" width="100" height="45" as="geometry" />
        </mxCell>
        <mxCell id="wNgRPNMnROrw59EM7K4U-21" value="Geología" style="whiteSpace=wrap;html=1;rounded=0;" vertex="1" parent="1">
          <mxGeometry x="140" y="450" width="70" height="30" as="geometry" />
        </mxCell>
        <mxCell id="wNgRPNMnROrw59EM7K4U-28" value="Topografía" style="rounded=0;whiteSpace=wrap;html=1;" vertex="1" parent="1">
          <mxGeometry x="360" y="565" width="90" height="25" as="geometry" />
        </mxCell>
        <mxCell id="wNgRPNMnROrw59EM7K4U-30" value="Uso de suelo" style="rounded=0;whiteSpace=wrap;html=1;" vertex="1" parent="1">
          <mxGeometry x="150" y="520" width="90" height="30" as="geometry" />
        </mxCell>
        <mxCell id="wNgRPNMnROrw59EM7K4U-32" value="Tipo de suelo" style="rounded=0;whiteSpace=wrap;html=1;" vertex="1" parent="1">
          <mxGeometry x="260" y="490" width="90" height="20" as="geometry" />
        </mxCell>
        <mxCell id="wNgRPNMnROrw59EM7K4U-34" value="Vegetación" style="rounded=0;whiteSpace=wrap;html=1;" vertex="1" parent="1">
          <mxGeometry x="410" y="510" width="70" height="20" as="geometry" />
        </mxCell>
        <mxCell id="wNgRPNMnROrw59EM7K4U-35" value="Movimiento de masa&amp;nbsp; de lodo, arena, suelo, roca, agua y vegetación" style="ellipse;shape=cloud;whiteSpace=wrap;html=1;rounded=0;direction=west;" vertex="1" parent="1">
          <mxGeometry x="67.5" y="170" width="185" height="95" as="geometry" />
        </mxCell>
        <mxCell id="wNgRPNMnROrw59EM7K4U-37" value="Incremento en las poro presiones" style="rounded=0;whiteSpace=wrap;html=1;" vertex="1" parent="1">
          <mxGeometry x="430" y="142.5" width="110" height="50" as="geometry" />
        </mxCell>
        <mxCell id="wNgRPNMnROrw59EM7K4U-40" value="Incremento escorrentía superficial" style="rounded=0;whiteSpace=wrap;html=1;" vertex="1" parent="1">
          <mxGeometry x="570" y="142.5" width="110" height="50" as="geometry" />
        </mxCell>
        <mxCell id="wNgRPNMnROrw59EM7K4U-42" value="Intensidad de lluvia" style="rounded=0;whiteSpace=wrap;html=1;" vertex="1" parent="1">
          <mxGeometry x="505" y="240" width="110" height="35" as="geometry" />
        </mxCell>
      </root>
    </mxGraphModel>
  </diagram>
</mxfile>
